<svg width="85" height="85" viewBox="0 0 85 85" fill="none" xmlns="http://www.w3.org/2000/svg">
<g filter="url(#filter0_d_855_6657)">
<rect width="68" height="68" rx="34" transform="matrix(-1 0 0 1 76.5 4.17969)" fill="white" shape-rendering="crispEdges"/>
<g clip-path="url(#clip0_855_6657)">
<path fill-rule="evenodd" clip-rule="evenodd" d="M36.7712 37.0871C36.4815 37.3769 36.3187 37.7699 36.3187 38.1797C36.3187 38.5895 36.4815 38.9826 36.7712 39.2724L45.5138 48.015C45.6564 48.1626 45.8269 48.2804 46.0155 48.3614C46.204 48.4424 46.4068 48.485 46.612 48.4868C46.8172 48.4886 47.0207 48.4494 47.2107 48.3717C47.4006 48.294 47.5731 48.1793 47.7182 48.0342C47.8634 47.8891 47.9781 47.7165 48.0558 47.5266C48.1335 47.3367 48.1726 47.1331 48.1708 46.9279C48.1691 46.7227 48.1264 46.5199 48.0454 46.3314C47.9644 46.1428 47.8467 45.9723 47.6991 45.8297L40.0491 38.1797L47.6991 30.5297C47.9806 30.2383 48.1364 29.8479 48.1329 29.4427C48.1293 29.0375 47.9668 28.6498 47.6803 28.3633C47.3937 28.0768 47.0061 27.9142 46.6009 27.9107C46.1957 27.9072 45.8053 28.063 45.5138 28.3445L36.7712 37.0871Z" fill="#E59312"/>
</g>
</g>
<defs>
<filter id="filter0_d_855_6657" x="0.5" y="0.179688" width="84" height="84" filterUnits="userSpaceOnUse" color-interpolation-filters="sRGB">
<feFlood flood-opacity="0" result="BackgroundImageFix"/>
<feColorMatrix in="SourceAlpha" type="matrix" values="0 0 0 0 0 0 0 0 0 0 0 0 0 0 0 0 0 0 127 0" result="hardAlpha"/>
<feOffset dy="4"/>
<feGaussianBlur stdDeviation="4"/>
<feComposite in2="hardAlpha" operator="out"/>
<feColorMatrix type="matrix" values="0 0 0 0 0.352083 0 0 0 0 0.355333 0 0 0 0 0.433333 0 0 0 0.25 0"/>
<feBlend mode="normal" in2="BackgroundImageFix" result="effect1_dropShadow_855_6657"/>
<feBlend mode="normal" in="SourceGraphic" in2="effect1_dropShadow_855_6657" result="shape"/>
</filter>
<clipPath id="clip0_855_6657">
<rect width="37.0909" height="37.0909" fill="white" transform="matrix(-1 0 0 1 61.0454 19.6343)"/>
</clipPath>
</defs>
</svg>
