<svg width="17" height="17" viewBox="0 0 17 17" fill="none" xmlns="http://www.w3.org/2000/svg">
<path d="M3.75271 7.11181C5.0233 9.60887 7.07036 11.6471 9.56742 12.9265L11.5086 10.9853C11.7468 10.7471 12.0998 10.6677 12.4086 10.7736C13.3968 11.1 14.4645 11.2765 15.5586 11.2765C16.0439 11.2765 16.4409 11.6736 16.4409 12.1589V15.2383C16.4409 15.7236 16.0439 16.1206 15.5586 16.1206C7.2733 16.1206 0.558594 9.40593 0.558594 1.12063C0.558594 0.63534 0.955653 0.238281 1.44095 0.238281H4.52918C5.01448 0.238281 5.41153 0.63534 5.41153 1.12063C5.41153 2.22358 5.58801 3.2824 5.91448 4.27063C6.01153 4.57946 5.94095 4.92358 5.69389 5.17063L3.75271 7.11181Z" fill="#3D3DFF"/>
</svg>
