<svg width="25" height="25" viewBox="0 0 25 25" fill="none" xmlns="http://www.w3.org/2000/svg">
<path d="M12.5 22.1797C6.977 22.1797 2.5 17.7027 2.5 12.1797C2.5 6.65669 6.977 2.17969 12.5 2.17969C18.023 2.17969 22.5 6.65669 22.5 12.1797C22.5 17.7027 18.023 22.1797 12.5 22.1797ZM12.5 20.1797C14.6217 20.1797 16.6566 19.3368 18.1569 17.8365C19.6571 16.3363 20.5 14.3014 20.5 12.1797C20.5 10.058 19.6571 8.02312 18.1569 6.52283C16.6566 5.02254 14.6217 4.17969 12.5 4.17969C10.3783 4.17969 8.34344 5.02254 6.84315 6.52283C5.34285 8.02312 4.5 10.058 4.5 12.1797C4.5 14.3014 5.34285 16.3363 6.84315 17.8365C8.34344 19.3368 10.3783 20.1797 12.5 20.1797ZM13.5 12.1797H17.5V14.1797H11.5V7.17969H13.5V12.1797Z" fill="#76757E"/>
</svg>
